HIERARCHY
ROOT joint_Root
{
	OFFSET 0.0 0.0 0.0
	CHANNELS 6 Xposition Yposition Zposition Zrotation Xrotation Yrotation 
	JOINT Hips
	{
		OFFSET 4.5925 91.4895 -427.239
		CHANNELS 6 Xposition Yposition Zposition Zrotation Xrotation Yrotation 
		JOINT Spine
		{
			OFFSET 15.7357 0.0 0.0
			CHANNELS 6 Xposition Yposition Zposition Zrotation Xrotation Yrotation 
			JOINT Chest
			{
				OFFSET 8.98455 -0.406207 0.0
				CHANNELS 6 Xposition Yposition Zposition Zrotation Xrotation Yrotation 
				JOINT Neck
				{
					OFFSET 16.3773 0.0 0.0
					CHANNELS 6 Xposition Yposition Zposition Zrotation Xrotation Yrotation 
					JOINT Head
					{
						OFFSET 6.45672 0.0 0.0
						CHANNELS 6 Xposition Yposition Zposition Zrotation Xrotation Yrotation 
						End Site
						{
							OFFSET 0.0 0.0 0.0
						}
					}
				}
				JOINT Shoulder_L
				{
					OFFSET 12.9942 -0.242716 4.98039
					CHANNELS 6 Xposition Yposition Zposition Zrotation Xrotation Yrotation 
					JOINT UpperArm_L
					{
						OFFSET 5.34809 0.0 0.0
						CHANNELS 6 Xposition Yposition Zposition Zrotation Xrotation Yrotation 
						JOINT LowerArm_L
						{
							OFFSET 24.3286 1.87007e-05 0.0
							CHANNELS 6 Xposition Yposition Zposition Zrotation Xrotation Yrotation 
							JOINT Hand_L
							{
								OFFSET 22.2916 0.0 0.0
								CHANNELS 6 Xposition Yposition Zposition Zrotation Xrotation Yrotation 
								End Site
								{
									OFFSET 0.0 0.0 0.0
								}
							}
						}
					}
				}
				JOINT Shoulder_R
				{
					OFFSET 12.9945 -0.242716 -4.98039
					CHANNELS 6 Xposition Yposition Zposition Zrotation Xrotation Yrotation 
					JOINT UpperArm_R
					{
						OFFSET -5.34813 0.0 0.0
						CHANNELS 6 Xposition Yposition Zposition Zrotation Xrotation Yrotation 
						JOINT LowerArm_R
						{
							OFFSET -24.3289 0.000322201 0.0
							CHANNELS 6 Xposition Yposition Zposition Zrotation Xrotation Yrotation 
							JOINT Hand_R
							{
								OFFSET -22.2915 -0.000108084 0.0
								CHANNELS 6 Xposition Yposition Zposition Zrotation Xrotation Yrotation 
								End Site
								{
									OFFSET 0.0 0.0 0.0
								}
							}
						}
					}
				}
			}
		}
		JOINT UpperLeg_L
		{
			OFFSET -2.19248 -6.46944 0.0
			CHANNELS 6 Xposition Yposition Zposition Zrotation Xrotation Yrotation 
			JOINT LowerLeg_L
			{
				OFFSET 39.0811 0.0 -1.23785e-05
				CHANNELS 6 Xposition Yposition Zposition Zrotation Xrotation Yrotation 
				JOINT Foot_L
				{
					OFFSET 40.9854 0.0 -1.26872e-05
					CHANNELS 6 Xposition Yposition Zposition Zrotation Xrotation Yrotation 
					JOINT Toes_L
					{
						OFFSET 11.7543 0.0 0.0
						CHANNELS 6 Xposition Yposition Zposition Zrotation Xrotation Yrotation 
						End Site
						{
							OFFSET 0.0 0.0 0.0
						}
					}
				}
			}
		}
		JOINT UpperLeg_R
		{
			OFFSET -2.19251 6.46944 0.0
			CHANNELS 6 Xposition Yposition Zposition Zrotation Xrotation Yrotation 
			JOINT LowerLeg_R
			{
				OFFSET -39.0811 -0.00228153 -0.0401928
				CHANNELS 6 Xposition Yposition Zposition Zrotation Xrotation Yrotation 
				JOINT Foot_R
				{
					OFFSET -40.9854 0.0 0.0
					CHANNELS 6 Xposition Yposition Zposition Zrotation Xrotation Yrotation 
					JOINT Toes_R
					{
						OFFSET -11.7543 0.0 0.0
						CHANNELS 6 Xposition Yposition Zposition Zrotation Xrotation Yrotation 
						End Site
						{
							OFFSET 0.0 0.0 0.0
						}
					}
				}
			}
		}
	}
}
MOTION
Frames:	7
Frame Time:	0.0333333
0.000000 0.000000 0.000000 0.000000 0.000000 -0.000000 -1.668660 90.396700 0.450516 90.404400 -8.425250 14.161200 15.735700 0.000005 -0.000001 74.094000 81.709100 -72.287400 8.984550 -0.406207 -0.000000 8.274160 -4.515930 3.938140 16.377300 -0.000001 -0.000001 32.253500 -11.244400 2.441720 6.456720 -0.000001 -0.000000 16.545700 -12.281600 7.373270 12.994200 -0.242716 4.980390 -88.669000 -3.342430 -68.271900 5.348090 -0.000007 -0.000001 -59.775300 -46.923200 -86.965800 24.328600 0.000019 0.000005 13.043900 9.931390 -53.334400 22.291600 -0.000001 0.000005 20.394700 5.337230 -0.997467 12.994500 -0.242716 -4.980390 87.923400 10.380100 -78.621700 -5.348130 -0.000001 -0.000004 -61.684800 32.041800 -6.180390 -24.328900 0.000322 -0.000009 1.116940 3.735530 -16.674800 -22.291500 -0.000108 -0.000004 11.574900 5.414780 -3.424200 -2.192480 -6.469440 -0.000000 -171.830000 -18.089600 5.599370 39.081100 -0.000007 -0.000012 -0.224986 0.369140 31.362100 40.985400 -0.000006 -0.000013 -0.704764 5.318030 -71.446300 11.754300 -0.000000 0.000003 -0.000081 -0.000856 -16.610500 -2.192510 6.469440 -0.000001 172.725000 17.955100 -175.122000 -39.081100 -0.002282 -0.040193 -0.226523 0.365627 32.152300 -40.985400 0.000008 0.000006 4.538120 13.925400 -72.822500 -11.754300 -0.000006 -0.000006 -0.001634 -0.024041 -17.550700
0.000000 0.000000 0.000000 0.000000 0.000000 -0.000000 -1.648980 90.405700 0.364983 90.407800 -8.489180 14.139200 15.735700 0.000005 -0.000001 74.622700 81.543100 -72.820100 8.984550 -0.406207 -0.000000 8.634600 -4.449750 3.939480 16.377300 -0.000001 -0.000001 32.246300 -11.400000 2.422740 6.456720 -0.000001 -0.000000 16.444300 -12.412800 7.602660 12.994200 -0.242716 4.980390 -88.701800 -3.245620 -68.185400 5.348090 -0.000007 -0.000001 -59.587400 -47.115800 -86.491300 24.328600 0.000019 0.000005 12.792400 9.719890 -53.366500 22.291600 -0.000001 0.000005 20.351400 5.336450 -0.974691 12.994500 -0.242716 -4.980390 87.918200 10.365900 -78.578600 -5.348130 -0.000001 -0.000004 -61.592500 32.070100 -6.519820 -24.328900 0.000322 -0.000009 1.105530 3.730570 -16.534600 -22.291500 -0.000108 -0.000004 11.595800 5.412990 -3.364330 -2.192480 -6.469440 -0.000000 -171.845000 -18.148100 5.516230 39.081100 -0.000007 -0.000012 -0.224750 0.368736 31.363400 40.985400 -0.000006 -0.000013 -0.679133 5.344720 -71.388100 11.754300 -0.000000 0.000003 -0.000079 -0.000843 -16.610100 -2.192510 6.469440 -0.000001 172.749000 17.938800 -175.225000 -39.081100 -0.002282 -0.040193 -0.224403 0.362157 32.159300 -40.985400 0.000008 0.000006 4.543650 13.952600 -72.758400 -11.754300 -0.000006 -0.000006 -0.001654 -0.024299 -17.561200
0.000000 0.000000 0.000000 0.000000 0.000000 -0.000000 -1.631850 90.414800 0.276667 90.401100 -8.561670 14.080300 15.735700 0.000005 -0.000001 75.262400 81.394500 -73.465400 8.984550 -0.406207 -0.000000 8.968700 -4.336870 3.932630 16.377300 -0.000001 -0.000001 32.210900 -11.510700 2.507410 6.456720 -0.000001 -0.000000 16.228300 -12.468300 7.964760 12.994200 -0.242716 4.980390 -88.724400 -3.181660 -68.139600 5.348090 -0.000007 -0.000001 -59.143900 -47.354200 -85.882400 24.328600 0.000019 0.000005 13.016500 9.862440 -53.463800 22.291600 -0.000001 0.000005 20.242800 5.336970 -0.989971 12.994500 -0.242716 -4.980390 87.900500 10.374000 -78.493000 -5.348130 -0.000001 -0.000004 -61.436100 32.044200 -6.872610 -24.328900 0.000322 -0.000009 1.071460 3.599470 -16.604200 -22.291500 -0.000108 -0.000004 11.603600 5.414660 -3.419930 -2.192480 -6.469440 -0.000000 -171.845000 -18.287400 5.400070 39.081100 -0.000007 -0.000012 -0.223242 0.366095 31.374900 40.985400 -0.000006 -0.000013 -0.657479 5.349840 -71.332600 11.754300 -0.000000 0.000003 -0.000084 -0.000886 -16.611700 -2.192510 6.469440 -0.000001 172.812000 17.899800 -175.374000 -39.081100 -0.002282 -0.040193 -0.223377 0.360429 32.166200 -40.985400 0.000008 0.000006 4.551120 13.962200 -72.688700 -11.754300 -0.000006 -0.000006 -0.001669 -0.024488 -17.568800
0.000000 0.000000 0.000000 0.000000 0.000000 -0.000000 -1.619030 90.431900 0.191405 90.413100 -8.641500 13.957600 15.735700 0.000005 -0.000001 75.770400 81.299800 -73.982500 8.984550 -0.406207 -0.000000 9.187940 -4.231940 3.914260 16.377300 -0.000001 -0.000001 32.229500 -11.598400 2.734820 6.456720 -0.000001 -0.000000 16.019500 -12.631000 8.225350 12.994200 -0.242716 4.980390 -88.745500 -3.125900 -68.120100 5.348090 -0.000007 -0.000001 -58.713000 -47.553100 -85.330200 24.328600 0.000019 0.000005 13.202600 10.018700 -53.440400 22.291600 -0.000001 0.000005 20.090800 5.335710 -0.952716 12.994500 -0.242716 -4.980390 87.893900 10.391500 -78.476500 -5.348130 -0.000001 -0.000004 -61.260700 32.090700 -7.166830 -24.328900 0.000322 -0.000009 1.032970 3.426840 -16.801900 -22.291500 -0.000108 -0.000004 11.693600 5.415130 -3.436020 -2.192480 -6.469440 -0.000000 -171.878000 -18.414000 5.243040 39.081100 -0.000007 -0.000012 -0.223402 0.367005 31.330000 40.985400 -0.000006 -0.000013 -0.641688 5.378450 -71.249500 11.754300 -0.000000 0.000003 -0.000077 -0.000820 -16.609200 -2.192510 6.469440 -0.000001 172.884000 17.850100 -175.574000 -39.081100 -0.002282 -0.040193 -0.220815 0.356706 32.140800 -40.985400 0.000008 0.000006 4.552410 13.966100 -72.607100 -11.754300 -0.000006 -0.000006 -0.001773 -0.025844 -17.624000
0.000000 0.000000 0.000000 0.000000 0.000000 -0.000000 -1.617950 90.447800 0.137454 90.384800 -8.657150 13.800500 15.735700 0.000005 -0.000001 76.023200 81.264300 -74.234400 8.984550 -0.406207 -0.000000 9.274260 -4.173160 3.914680 16.377300 -0.000001 -0.000001 32.213900 -11.726900 2.955250 6.456720 -0.000001 -0.000000 15.966000 -12.872700 8.400000 12.994200 -0.242716 4.980390 -88.761200 -3.087800 -68.126400 5.348090 -0.000007 -0.000001 -58.617400 -47.618500 -85.069300 24.328600 0.000019 0.000005 13.275700 10.143300 -53.261800 22.291600 -0.000001 0.000005 19.957700 5.335920 -0.958860 12.994500 -0.242716 -4.980390 87.889600 10.397500 -78.459900 -5.348130 -0.000001 -0.000004 -61.061500 32.227300 -7.427500 -24.328900 0.000322 -0.000009 1.015270 3.332540 -16.970600 -22.291500 -0.000108 -0.000004 11.617800 5.416900 -3.494900 -2.192480 -6.469440 -0.000000 -171.886000 -18.524300 5.065020 39.081100 -0.000007 -0.000012 -0.219074 0.360277 31.303000 40.985400 -0.000006 -0.000013 -0.615648 5.437000 -71.196700 11.754300 -0.000000 0.000003 -0.000083 -0.000877 -16.611300 -2.192510 6.469440 -0.000001 172.956000 17.937900 -175.751000 -39.081100 -0.002282 -0.040193 -0.218036 0.353033 32.085900 -40.985400 0.000008 0.000006 4.581640 14.059000 -72.539000 -11.754300 -0.000006 -0.000006 -0.001754 -0.025588 -17.613600
0.000000 0.000000 0.000000 0.000000 0.000000 -0.000000 -1.620670 90.465300 0.112456 90.373400 -8.728840 13.652400 15.735700 0.000005 -0.000001 76.187900 81.278000 -74.405100 8.984550 -0.406207 -0.000000 9.258200 -4.118620 3.897390 16.377300 -0.000001 -0.000001 32.175900 -11.860400 3.107650 6.456720 -0.000001 -0.000000 16.064800 -13.127200 8.535180 12.994200 -0.242716 4.980390 -88.757700 -3.100310 -68.150700 5.348090 -0.000007 -0.000001 -58.815500 -47.612800 -85.006500 24.328600 0.000019 0.000005 13.277900 10.232900 -53.027100 22.291600 -0.000001 0.000005 19.937600 5.333280 -0.881367 12.994500 -0.242716 -4.980390 87.898200 10.408500 -78.517400 -5.348130 -0.000001 -0.000004 -60.929800 32.355700 -7.637990 -24.328900 0.000322 -0.000009 0.999818 3.263370 -17.061000 -22.291500 -0.000108 -0.000004 11.624600 5.416730 -3.489180 -2.192480 -6.469440 -0.000000 -171.887000 -18.640300 4.945400 39.081100 -0.000007 -0.000012 -0.219437 0.361862 31.233400 40.985400 -0.000006 -0.000013 -0.605802 5.494670 -71.146100 11.754300 -0.000000 0.000003 -0.000075 -0.000803 -16.608500 -2.192510 6.469440 -0.000001 173.005000 18.006500 -175.891000 -39.081100 -0.002282 -0.040193 -0.217495 0.353139 32.015100 -40.985400 0.000008 0.000006 4.606030 14.150800 -72.484700 -11.754300 -0.000006 -0.000006 -0.001789 -0.026041 -17.632000
0.000000 0.000000 0.000000 0.000000 0.000000 -0.000000 -1.619420 90.471900 0.121462 90.356900 -8.811720 13.495000 15.735700 0.000005 -0.000001 76.218000 81.331000 -74.435600 8.984550 -0.406207 -0.000000 9.156520 -4.086660 3.890440 16.377300 -0.000001 -0.000001 32.087500 -11.947800 3.187910 6.456720 -0.000001 -0.000000 16.167100 -13.362500 8.607700 12.994200 -0.242716 4.980390 -88.759300 -3.102130 -68.187700 5.348090 -0.000007 -0.000001 -59.215900 -47.596800 -85.132700 24.328600 0.000019 0.000005 13.165500 10.245100 -52.751800 22.291600 -0.000001 0.000005 19.877800 5.332770 -0.866521 12.994500 -0.242716 -4.980390 87.908000 10.400700 -78.561500 -5.348130 -0.000001 -0.000004 -60.798200 32.441100 -7.893770 -24.328900 0.000322 -0.000009 1.011500 3.298930 -17.073600 -22.291500 -0.000108 -0.000004 11.610900 5.416880 -3.494350 -2.192480 -6.469440 -0.000000 -171.877000 -18.790200 4.820730 39.081100 -0.000007 -0.000012 -0.219389 0.362113 31.210300 40.985400 -0.000006 -0.000013 -0.600330 5.530250 -71.139800 11.754300 -0.000000 0.000003 -0.000083 -0.000881 -16.611500 -2.192510 6.469440 -0.000001 173.083000 17.972000 -176.048000 -39.081100 -0.002282 -0.040193 -0.215811 0.350901 31.981600 -40.985400 0.000008 0.000006 4.616490 14.203400 -72.467500 -11.754300 -0.000006 -0.000006 -0.001671 -0.024517 -17.570000
